<svg width="209" height="242" viewBox="0 0 209 242" fill="none" xmlns="http://www.w3.org/2000/svg">
<g clip-path="url(#clip0_25_3551)">
<path d="M155.771 0.532227V117.592L42.6473 0.532227H0.321777V140.033H53.2287V89.375L165.841 209.042H208.678V0.532227H155.771Z" fill="#505668"/>
<path d="M53.2287 156.084H0.321777V208.991H53.2287V156.084Z" fill="#505668"/>
<path d="M6.6604 162.32C20.0533 162.32 33.4973 162.32 46.8901 162.32V202.55H6.6604V162.32ZM10.9543 166.614V198.256H42.5962V166.614H10.9543Z" fill="#76878D"/>
<path d="M18.8264 190.333V174.486H34.673V190.333H18.8264ZM23.1714 186.039H30.4302V178.78H23.1714V186.039Z" fill="#DDAE4F"/>
<path d="M169.01 18.7301V27.8802H159.503V18.7301H162.161V6.92188C175.502 6.92188 188.895 6.92188 202.237 6.92188V121.119H204.895V130.269H195.387V121.119H198.045V11.1647H166.403V18.7301H169.01Z" fill="#DDAE4F"/>
<path d="M39.9382 123.879V114.729H49.4461V123.879H46.8391V133.643C33.4973 133.643 20.1044 133.643 6.7627 133.643V71.9947L18.7243 56.2504V21.1836H36.1043L105.778 93.5153L107.311 114.014L174.685 183.994H186.084V166.103H183.426V156.953H192.934V166.103H190.276V188.186H172.845L103.171 115.854L101.637 95.3556L34.2641 25.4264H22.9159V57.6306L10.9544 73.3749V129.4H42.5963V123.828H39.9382V123.879Z" fill="#DDAE4F"/>
<path d="M87.6822 89.8858L94.0208 96.48L87.2222 103.074L80.8836 96.48L82.7749 94.6398L34.8775 44.9533V89.8858H37.4845V99.0359H28.0277V89.8858H30.6347V38.2568H34.2641L85.7909 91.7261L87.6822 89.8858Z" fill="#64939B"/>
<path d="M171.464 63.7142V54.6152H180.972V63.7653H178.314L178.212 171.113H174.582L123.567 118.155L121.676 119.995L115.337 113.401L122.187 106.807L128.525 113.401L126.634 115.241L174.02 164.416L174.122 63.7653L171.464 63.7142Z" fill="#64939B"/>
<path d="M25.5229 87.2791V78.129H16.0661V87.2791H18.6731V121.375H34.8263V114.32L46.839 100.825V76.2377L168.397 202.601H202.237V150.819L190.276 135.074V21.1838C184.857 21.1838 179.49 21.1838 174.122 21.1838V32.6341L162.161 48.3784L162.059 133.081L40.5515 6.92188C29.3056 6.92188 18.0085 6.92188 6.76262 6.92188V42.2954H4.10449V51.4455H13.6124V42.2954H10.9543V11.1647H38.7624L162.672 139.828L166.301 139.982L166.404 49.8097L178.365 34.0654V25.4265H186.084V136.454L198.046 152.199V198.358H170.237L46.2256 69.5412L42.5962 69.5924V99.3941L30.6346 112.94V117.183H22.9159V87.2791H25.5229Z" fill="#76878D"/>
<path d="M16.1172 225.042V241.042H11.6699L5.58691 233.783V241.042H0.321777V225.042H4.76903L10.8521 232.301V225.042H16.1172Z" fill="#DDAE4F"/>
<path d="M38.1489 237.003V241.093H24.8071V225.093H37.8422V229.182H30.1234V231.074H36.9221V234.958H30.1234V237.054H38.1489V237.003Z" fill="#DDAE4F"/>
<path d="M56.347 241.093L53.5867 236.799L50.8774 241.093H44.7433L50.5196 233.016L44.9478 225.093H51.0308L53.74 229.131L56.3981 225.093H62.1745L56.6026 232.812L62.4812 241.093H56.347Z" fill="#DDAE4F"/>
<path d="M83.2349 225.042H89.5735C91.2604 225.042 92.6917 225.4 94.0207 226.064C95.2987 226.729 96.321 227.7 97.0367 228.927C97.7523 230.154 98.1102 231.534 98.1102 233.067C98.1102 234.601 97.7523 235.981 97.0367 237.208C96.321 238.435 95.2987 239.355 94.0207 240.071C92.7428 240.735 91.2604 241.093 89.5735 241.093H83.2349V225.042ZM89.4712 240.02C90.9537 240.02 92.2316 239.713 93.4073 239.15C94.5319 238.588 95.4009 237.719 96.0143 236.697C96.6277 235.623 96.9344 234.448 96.9344 233.067C96.9344 231.687 96.6277 230.512 96.0143 229.438C95.4009 228.365 94.5319 227.547 93.4073 226.984C92.2827 226.422 90.9537 226.115 89.4712 226.115H84.4106V240.02H89.4712V240.02Z" fill="white"/>
<path d="M108.232 225.042H109.407V241.042H108.232V225.042Z" fill="white"/>
<path d="M132.564 233.119H133.688V239.099C132.973 239.764 132.155 240.275 131.132 240.633C130.11 240.991 129.088 241.144 127.963 241.144C126.378 241.144 124.947 240.786 123.669 240.071C122.391 239.355 121.42 238.384 120.653 237.157C119.938 235.93 119.58 234.55 119.58 233.016C119.58 231.483 119.938 230.103 120.653 228.876C121.369 227.649 122.391 226.678 123.669 225.962C124.947 225.247 126.378 224.889 127.963 224.889C129.139 224.889 130.212 225.093 131.183 225.451C132.155 225.809 133.024 226.371 133.688 227.087L132.973 227.854C132.308 227.189 131.541 226.678 130.723 226.422C129.906 226.116 128.985 225.962 127.963 225.962C126.583 225.962 125.356 226.269 124.231 226.882C123.107 227.496 122.238 228.314 121.624 229.387C121.011 230.461 120.704 231.687 120.704 232.965C120.704 234.294 121.011 235.47 121.676 236.544C122.289 237.617 123.158 238.486 124.283 239.099C125.356 239.713 126.634 240.02 128.014 240.02C129.854 240.02 131.388 239.508 132.564 238.537V233.119Z" fill="white"/>
<path d="M144.934 225.042H146.11V241.042H144.934V225.042Z" fill="white"/>
<path d="M160.832 226.115H155.056V225.042H167.733V226.115H161.957V241.093H160.832V226.115Z" fill="white"/>
<path d="M185.88 236.543H176.576L174.531 241.042H173.253L180.614 225.042H181.79L189.151 241.042H187.924L185.88 236.543ZM185.419 235.572L181.228 226.32L177.036 235.572H185.419Z" fill="white"/>
<path d="M198.199 225.042H199.375V240.02H208.576V241.093H198.199V225.042Z" fill="white"/>
</g>
<defs>
<clipPath id="clip0_25_3551">
<rect width="208.356" height="240.663" fill="white" transform="translate(0.321777 0.532227)"/>
</clipPath>
</defs>
</svg>
